<?xml version="1.0" encoding="utf-8"?>
<!-- Generator: Adobe Illustrator 21.0.2, SVG Export Plug-In . SVG Version: 6.00 Build 0)  -->
<svg version="1.1" id="Layer_1" xmlns="http://www.w3.org/2000/svg" xmlns:xlink="http://www.w3.org/1999/xlink" x="0px" y="0px"
	 viewBox="0 0 400 600" style="enable-background:new 0 0 400 600;" xml:space="preserve">
<style type="text/css">
	.st0{fill:none;stroke:#EDEDED;stroke-width:6.7078;stroke-miterlimit:10;}
	.st1{fill:none;stroke:#262A35;stroke-width:6.7078;stroke-miterlimit:10;}
	.st2{fill:#EDEDED;}
	.st3{fill:#FFFFFF;}
	.st4{clip-path:url(#SVGID_5_);}
	.st5{clip-path:url(#SVGID_6_);fill:url(#SVGID_7_);}
	.st6{fill:url(#SVGID_8_);}
	.st7{fill:none;stroke:#262A35;stroke-width:1.5484;stroke-miterlimit:10;}
	.st8{fill:#262A35;}
	.st9{fill:none;}
	.st10{font-family:'Avenir-Roman';}
	.st11{font-size:43.4836px;}
	.st12{font-size:14.8481px;}
</style>
<path class="st0" d="M250.7,455L60.8,442.2c-15.4-1.1-27.6-14-28.7-30.3L11.8,96c-1.2-20.5,14-37.9,33.3-37.9h322.2
	c19.9,0,35.3,18.5,33.1,39.6l-35.7,325.9c-1.9,17.9-16.2,31.4-33.1,31.4h-21.9"/>
<path class="st1" d="M249.7,459.3L59.8,446.3c-15.4-1.1-27.6-14.2-28.7-30.8L10.7,96C9.5,75.3,24.8,57.7,44,57.7h322.2
	c19.9,0,35.3,18.8,33.1,40.1l-35.7,329.7c-1.9,18.1-16.2,31.7-33.1,31.7h-21.9"/>
<g>
	<polygon class="st2" points="366.3,75.3 44.1,89.6 61.9,411.2 263.9,428 245.3,501.8 328.4,421.7 	"/>
	<polygon class="st3" points="381.1,75.5 58.7,80.4 67.3,403.2 280.4,428.2 262.1,502 343.9,421.9 	"/>
	<g>
		<g>
			<defs>
				<polygon id="SVGID_3_" points="3.6,-14.8 4.6,-14.8 3.6,-13.8 				"/>
			</defs>
			<defs>
				<polygon id="SVGID_4_" points="1.6,-16.9 0.6,-16.9 1.6,-18 				"/>
			</defs>
			<clipPath id="SVGID_5_">
				<use xlink:href="#SVGID_3_"  style="overflow:visible;"/>
			</clipPath>
			<clipPath id="SVGID_6_" class="st4">
				<use xlink:href="#SVGID_4_"  style="overflow:visible;"/>
			</clipPath>
			
				<linearGradient id="SVGID_7_" gradientUnits="userSpaceOnUse" x1="355.6277" y1="518.1475" x2="93.795" y2="226.7907" gradientTransform="matrix(1 0 0 -1 0 600)">
				<stop  offset="5.102040e-03" style="stop-color:#FFFFFF"/>
				<stop  offset="8.874961e-02" style="stop-color:#F6F6F6"/>
				<stop  offset="0.2235" style="stop-color:#DFDFDF"/>
				<stop  offset="0.3926" style="stop-color:#B8B8B8"/>
				<stop  offset="0.5894" style="stop-color:#828282"/>
				<stop  offset="0.8066" style="stop-color:#3F3F3F"/>
				<stop  offset="0.9898" style="stop-color:#000000"/>
			</linearGradient>
			<polygon class="st5" points="385.3,78.7 66.6,80.5 71.7,399.5 288.3,424.7 269.8,498.4 346.5,414.9 			"/>
		</g>
	</g>
	
		<linearGradient id="SVGID_8_" gradientUnits="userSpaceOnUse" x1="355.6277" y1="518.1475" x2="93.795" y2="226.7907" gradientTransform="matrix(1 0 0 -1 0 600)">
		<stop  offset="5.102040e-03" style="stop-color:#E9E9E9"/>
		<stop  offset="0.5035" style="stop-color:#F2F2F2"/>
		<stop  offset="0.9898" style="stop-color:#FFFFFF"/>
	</linearGradient>
	<polygon class="st6" points="385.3,78.7 66.6,80.5 71.7,399.5 288.3,424.7 269.8,498.4 346.5,414.9 	"/>
	<g>
		<g>
			<line class="st7" x1="91.8" y1="183.7" x2="177" y2="183.7"/>
			<line class="st7" x1="240.9" y1="183.7" x2="322.5" y2="183.7"/>
			<ellipse class="st8" cx="208" cy="183.7" rx="2.3" ry="2.5"/>
		</g>
	</g>
	<polygon class="st8" points="326.5,288.5 95.2,288.5 95.7,383.9 314.9,397.1 	"/>
	<g>
		<ellipse class="st3" cx="173.9" cy="402.2" rx="3.8" ry="4.1"/>
		<ellipse class="st3" cx="197.9" cy="402.2" rx="3.8" ry="4.1"/>
		<ellipse class="st3" cx="221.8" cy="402.2" rx="3.8" ry="4.1"/>
	</g>
</g>
<rect x="125.1" y="127.7" class="st9" width="172" height="63.6"/>
<text transform="matrix(0.9596 0 0 1 157.8008 160.5928)" class="st10 st11">POST</text>
<rect x="83.2" y="313.5" class="st9" width="244.5" height="86.1"/>
<text transform="matrix(0.9596 0 0 1 97.7071 324.7676)" class="st3 st10 st12">Post a CMLTD Internship or share </text>
<text transform="matrix(0.9596 0 0 1 101.7784 342.585)" class="st3 st10 st12">your internship experiences with </text>
<text transform="matrix(0.9596 0 0 1 109.2081 360.4033)" class="st3 st10 st12">other students in the program </text>
<image style="overflow:visible;enable-background:new    ;" width="128" height="128" xlink:href="CD923FDD9AD4004B.png"  transform="matrix(0.4789 0 0 0.4805 170.5323 205.7814)">
</image>
</svg>
